<svg width="1600" height="360" viewBox="0 0 1600 360" xmlns="http://www.w3.org/2000/svg" preserveAspectRatio="xMidYMid slice">
  <defs>
    <linearGradient id="bg" x1="0" y1="0" x2="1600" y2="360" gradientUnits="userSpaceOnUse">
      <stop stop-color="#0b2540"/>
      <stop offset="0.48" stop-color="#12385c"/>
      <stop offset="1" stop-color="#0f766e"/>
    </linearGradient>
    <radialGradient id="cell" cx="50%" cy="50%" r="50%">
      <stop offset="0%" stop-color="#ff7a86" stop-opacity="0.9"/>
      <stop offset="68%" stop-color="#f43f5e" stop-opacity="0.38"/>
      <stop offset="100%" stop-color="#f43f5e" stop-opacity="0"/>
    </radialGradient>
    <filter id="blur">
      <feGaussianBlur stdDeviation="2.5"/>
    </filter>
  </defs>
  <rect width="1600" height="360" fill="url(#bg)"/>
  <g opacity="0.12" stroke="#a7f3d0" stroke-width="1.6">
    <path d="M600 34h360M600 82h360M600 130h360M600 178h360M600 226h360M600 274h360"/>
    <path d="M624 18v292M672 18v292M720 18v292M768 18v292M816 18v292M864 18v292M912 18v292"/>
  </g>
  <g opacity="0.22" transform="translate(625 64)">
    <ellipse cx="132" cy="96" rx="128" ry="72" fill="none" stroke="#d9ffff" stroke-width="6"/>
    <ellipse cx="132" cy="96" rx="94" ry="48" fill="#d9ffff" fill-opacity="0.08" stroke="#5eead4" stroke-width="3"/>
    <circle cx="94" cy="82" r="17" fill="#fb7185"/>
    <circle cx="151" cy="103" r="22" fill="#38bdf8" opacity="0.72"/>
    <circle cx="195" cy="79" r="12" fill="#a7f3d0"/>
    <circle cx="117" cy="119" r="10" fill="#facc15"/>
    <path d="M60 118c42-28 82-28 126 0" fill="none" stroke="#d9ffff" stroke-width="4" stroke-linecap="round"/>
    <text x="132" y="182" text-anchor="middle" font-family="Arial, Microsoft YaHei, sans-serif" font-size="21" font-weight="800" fill="#d9ffff">CELL LINE</text>
  </g>
  <g opacity="0.2" transform="translate(870 188)">
    <path d="M0 92C32 86 46 72 58 48c15-30 45-41 78-33 34 8 52 34 64 63 11 26 31 38 68 35" fill="none" stroke="#5eead4" stroke-width="7" stroke-linecap="round"/>
    <path d="M0 112h284M18 2v128" stroke="#d9ffff" stroke-width="3" stroke-linecap="round"/>
    <circle cx="58" cy="48" r="8" fill="#facc15"/>
    <circle cx="136" cy="15" r="9" fill="#fb7185"/>
    <circle cx="200" cy="78" r="8" fill="#38bdf8"/>
    <text x="152" y="134" text-anchor="middle" font-family="Arial, Microsoft YaHei, sans-serif" font-size="18" font-weight="800" fill="#d9ffff">DOSE RESPONSE</text>
  </g>
  <g opacity="0.18" transform="translate(486 170)">
    <rect x="0" y="0" width="148" height="92" rx="18" fill="none" stroke="#b8f5ff" stroke-width="4"/>
    <path d="M22 28h104M22 48h78M22 68h118" stroke="#5eead4" stroke-width="4" stroke-linecap="round"/>
    <circle cx="118" cy="48" r="18" fill="#fb7185" opacity="0.85"/>
  </g>
  <g opacity="0.18">
    <path d="M1110 30c108 60 108 134 0 194-108 60-108 106 0 166" fill="none" stroke="#8cf4ff" stroke-width="15" stroke-linecap="round"/>
    <path d="M1270 30c-108 60-108 134 0 194 108 60 108 106 0 166" fill="none" stroke="#40d9c8" stroke-width="15" stroke-linecap="round"/>
    <path d="M1128 62h126M1096 104h190M1086 146h212M1100 188h184M1132 230h120M1170 272h60" stroke="#d9ffff" stroke-width="7" stroke-linecap="round"/>
  </g>
  <g opacity="0.17" fill="none" stroke="#b8f5ff" stroke-width="3">
    <path d="M842 78l54 34 63-18 46 48 72-10"/>
    <path d="M896 112l-16 68 61 30 64-68"/>
    <circle cx="842" cy="78" r="15" fill="#74dff3"/>
    <circle cx="896" cy="112" r="9" fill="#3cc8e6"/>
    <circle cx="959" cy="94" r="12" fill="#b8f5ff"/>
    <circle cx="1005" cy="142" r="11" fill="#facc15"/>
    <circle cx="1077" cy="132" r="13" fill="#fb7185"/>
  </g>
  <g opacity="0.2" transform="translate(1330 84) rotate(-18)">
    <rect x="0" y="0" width="70" height="210" rx="35" fill="#e8fbff" stroke="#9de7f3" stroke-width="7"/>
    <path d="M0 35a35 35 0 0170 0v72H0z" fill="#fb7185"/>
    <path d="M0 107h70v68a35 35 0 01-70 0z" fill="#38bdf8"/>
    <line x1="0" y1="107" x2="70" y2="107" stroke="#e8fbff" stroke-width="6"/>
  </g>
  <g opacity="0.22" transform="translate(1395 110)">
    <circle cx="74" cy="74" r="73" fill="none" stroke="#d9ffff" stroke-width="8"/>
    <circle cx="74" cy="74" r="34" fill="url(#cell)"/>
    <path d="M74-12v172M-12 74h172" stroke="#d9ffff" stroke-width="6" stroke-linecap="round"/>
    <circle cx="42" cy="42" r="9" fill="#fb7185"/>
    <circle cx="109" cy="54" r="7" fill="#f43f5e"/>
    <circle cx="48" cy="110" r="8" fill="#f43f5e"/>
  </g>
  <g opacity="0.1" filter="url(#blur)">
    <circle cx="1140" cy="292" r="70" fill="#7dd3fc"/>
    <circle cx="1510" cy="48" r="54" fill="#5eead4"/>
    <circle cx="910" cy="306" r="44" fill="#facc15"/>
  </g>
  <path d="M780 322c168-78 380-78 610-16 72 19 144 22 210 5v49H780z" fill="#ffffff" opacity="0.06"/>
</svg>
